<?xml version="1.0" encoding="utf-8"?>
<!-- Generator: Adobe Illustrator 16.0.0, SVG Export Plug-In . SVG Version: 6.00 Build 0)  -->
<!DOCTYPE svg PUBLIC "-//W3C//DTD SVG 1.1//EN" "http://www.w3.org/Graphics/SVG/1.1/DTD/svg11.dtd">
<svg version="1.1" id="Layer_1" xmlns="http://www.w3.org/2000/svg" xmlns:xlink="http://www.w3.org/1999/xlink" x="0px" y="0px"
	 width="200px" height="29.333px" viewBox="0 0 200 29.333" enable-background="new 0 0 200 29.333" xml:space="preserve">
<g>
	<g>
		<g>
			<g>
				<g>
					<path fill-rule="evenodd" clip-rule="evenodd" fill="#03649B" d="M4.263,12.838V21.4c0,0.337,0.113,0.665,0.443,0.665h5.812
						v-4.836c0-0.317,0.224-0.623,0.534-0.623h2.66c0.386,0,0.667,0.37,0.667,0.846v4.612h5.369c0.507,0,0.843-0.164,0.843-0.665
						v-8.563c0-0.153-0.34-0.392-0.449-0.48l-7.448-6.619c-0.159,0.041-0.14,0.083-0.261,0.182l-5.025,4.202
						C6.5,10.858,5.35,11.905,4.49,12.58C4.407,12.644,4.263,12.703,4.263,12.838L4.263,12.838z"/>
				</g>
				<g>
					<path fill-rule="evenodd" clip-rule="evenodd" fill="#03649B" d="M1.202,12.128c0.72,1.075,1.807,0.4,2.518-0.23l1.303-1.093
						c0.617-0.5,1.325-1.164,1.922-1.628l5.141-4.355c0.122-0.105,0.193-0.17,0.31-0.27l0.341-0.277
						c0.344,0.23,1.845,1.676,2.322,2.075c0.154,0.129,0.209,0.164,0.351,0.311c0.127,0.124,0.209,0.16,0.335,0.289l2.332,2.104
						c0.145,0.124,0.191,0.152,0.328,0.288l1.008,0.905c0.815,0.629,1.866,1.882,2.806,2.251c0.745,0.293,1.57,0.059,1.702-0.505
						c-0.168-0.041-0.228-0.165-0.344-0.277c-0.13-0.129-0.22-0.17-0.355-0.306l-3.142-2.85c-0.145-0.112-0.208-0.212-0.342-0.323
						l-6.296-5.683c-0.142-0.118-0.479-0.482-0.703-0.629c-0.208,0.142-3.363,3.015-4.132,3.633L6.958,7.014
						C6.825,7.149,6.737,7.191,6.604,7.325L5.161,8.59c-0.064,0.058-0.09,0.094-0.157,0.152c-0.09,0.077-0.108,0.077-0.199,0.159
						l-2.901,2.556c-0.135,0.105-0.207,0.205-0.348,0.317C1.423,11.874,1.295,11.987,1.202,12.128L1.202,12.128z"/>
				</g>
				<g>
					<path fill-rule="evenodd" clip-rule="evenodd" fill="#03649B" d="M18.994,6.891c0,0.135,0.025,0.076,0.087,0.135l2.174,1.816
						V4.229h-2.261V6.891L18.994,6.891z"/>
				</g>
			</g>
		</g>
		<g>
			<g>
				<g>
					<g>
						<path fill-rule="evenodd" clip-rule="evenodd" fill="#03649B" d="M44.343,10.484c-0.323-0.829-0.753-1.551-1.319-2.167
							c-0.565-0.615-1.238-1.097-2.018-1.444c-0.781-0.348-1.643-0.508-2.61-0.508c-0.971,0-1.858,0.161-2.666,0.481
							c-0.808,0.348-1.481,0.776-1.991,1.339V6.738h-3.285v20.041h3.285v-8.375c0.456,0.616,1.103,1.07,1.91,1.392
							c0.808,0.322,1.696,0.481,2.693,0.481c0.913,0,1.749-0.187,2.529-0.534c0.808-0.349,1.481-0.858,2.074-1.472
							c0.563-0.644,1.022-1.392,1.372-2.277c0.323-0.856,0.484-1.818,0.484-2.861C44.801,12.198,44.639,11.313,44.343,10.484
							L44.343,10.484z M41.598,14.951c-0.189,0.536-0.485,1.019-0.833,1.419c-0.378,0.402-0.808,0.724-1.347,0.964
							c-0.511,0.242-1.075,0.374-1.695,0.374c-0.674,0-1.266-0.132-1.777-0.374c-0.512-0.24-0.942-0.562-1.292-0.991
							c-0.35-0.401-0.592-0.883-0.78-1.444c-0.189-0.535-0.27-1.098-0.27-1.685c0-0.562,0.108-1.124,0.296-1.632
							c0.188-0.509,0.485-0.963,0.835-1.365c0.349-0.401,0.78-0.696,1.318-0.937c0.512-0.241,1.077-0.347,1.722-0.347
							c0.593,0,1.158,0.106,1.669,0.347c0.513,0.241,0.942,0.536,1.32,0.937c0.349,0.402,0.644,0.883,0.833,1.39
							c0.188,0.536,0.295,1.099,0.295,1.688C41.893,13.882,41.786,14.443,41.598,14.951L41.598,14.951z"/>
					</g>
				</g>
				<g>
					<path fill-rule="evenodd" clip-rule="evenodd" fill="#03649B" d="M54.49,9.628v-2.97c-0.188-0.081-0.376-0.133-0.592-0.161
						c-0.215-0.027-0.43-0.027-0.619-0.027c-0.888,0-1.642,0.135-2.208,0.402c-0.564,0.294-1.048,0.643-1.425,1.043V6.738h-3.285
						v13.191h3.285v-6.234c0-1.552,0.241-2.702,0.727-3.478c0.483-0.776,1.237-1.178,2.286-1.178c0.405,0,0.754,0.053,1.051,0.188
						c0.297,0.133,0.538,0.268,0.728,0.401H54.49L54.49,9.628z"/>
				</g>
				<g>
					<g>
						<path fill-rule="evenodd" clip-rule="evenodd" fill="#03649B" d="M68.594,10.591c-0.35-0.828-0.807-1.579-1.427-2.193
							c-0.619-0.615-1.373-1.125-2.262-1.498c-0.887-0.349-1.884-0.536-2.987-0.536c-1.076,0-2.071,0.161-2.96,0.508
							c-0.889,0.347-1.669,0.856-2.288,1.472c-0.62,0.614-1.104,1.364-1.454,2.194c-0.35,0.855-0.539,1.792-0.539,2.81
							c0,0.99,0.162,1.898,0.513,2.729c0.349,0.828,0.835,1.58,1.453,2.195c0.619,0.614,1.346,1.123,2.234,1.472
							c0.889,0.347,1.857,0.534,2.961,0.534c1.077,0,2.072-0.187,2.96-0.534c0.889-0.349,1.668-0.858,2.288-1.472
							c0.62-0.644,1.13-1.367,1.481-2.195c0.35-0.856,0.51-1.766,0.51-2.756C69.078,12.358,68.917,11.447,68.594,10.591
							L68.594,10.591z M65.901,15.033c-0.187,0.509-0.483,0.991-0.861,1.391c-0.377,0.402-0.833,0.696-1.372,0.938
							c-0.538,0.24-1.158,0.347-1.83,0.347c-0.673,0-1.292-0.107-1.805-0.347c-0.538-0.241-0.995-0.536-1.344-0.938
							c-0.351-0.4-0.647-0.881-0.835-1.417c-0.189-0.535-0.296-1.097-0.296-1.686c0-0.562,0.106-1.123,0.322-1.659
							c0.189-0.534,0.486-1.017,0.863-1.418c0.376-0.401,0.833-0.723,1.372-0.964c0.539-0.241,1.132-0.347,1.804-0.347
							c0.674,0,1.266,0.106,1.802,0.347c0.514,0.241,0.97,0.563,1.347,0.964c0.35,0.401,0.646,0.884,0.833,1.418
							c0.188,0.536,0.297,1.097,0.297,1.659C66.198,13.936,66.09,14.498,65.901,15.033L65.901,15.033z"/>
					</g>
				</g>
				<g>
					<g>
						<path fill-rule="evenodd" clip-rule="evenodd" fill="#03649B" d="M84.636,10.484c-0.323-0.829-0.754-1.551-1.319-2.167
							c-0.565-0.615-1.238-1.097-2.019-1.444c-0.781-0.348-1.642-0.508-2.611-0.508c-0.968,0-1.856,0.161-2.664,0.481
							c-0.808,0.348-1.48,0.776-1.99,1.339V6.738h-3.287v20.041h3.287v-8.375c0.456,0.616,1.101,1.07,1.91,1.392
							c0.807,0.322,1.696,0.481,2.691,0.481c0.916,0,1.75-0.187,2.53-0.534c0.807-0.349,1.481-0.858,2.072-1.472
							c0.566-0.644,1.022-1.392,1.372-2.277c0.324-0.856,0.486-1.818,0.486-2.861C85.094,12.198,84.932,11.313,84.636,10.484
							L84.636,10.484z M81.891,14.951c-0.188,0.536-0.485,1.019-0.835,1.419c-0.377,0.402-0.807,0.724-1.345,0.964
							c-0.512,0.242-1.077,0.374-1.696,0.374c-0.674,0-1.265-0.132-1.777-0.374c-0.511-0.24-0.941-0.562-1.292-0.991
							c-0.35-0.401-0.591-0.883-0.78-1.444c-0.188-0.535-0.27-1.098-0.27-1.685c0-0.562,0.108-1.124,0.296-1.632
							c0.189-0.509,0.486-0.963,0.834-1.365c0.35-0.401,0.781-0.696,1.319-0.937c0.513-0.241,1.077-0.347,1.724-0.347
							c0.591,0,1.157,0.106,1.668,0.347c0.511,0.241,0.941,0.536,1.318,0.937c0.351,0.402,0.647,0.883,0.835,1.39
							c0.188,0.536,0.296,1.099,0.296,1.688C82.187,13.882,82.079,14.443,81.891,14.951L81.891,14.951z"/>
					</g>
				</g>
				<g>
					<g>
						<path fill-rule="evenodd" clip-rule="evenodd" fill="#03649B" d="M99.547,14.017c0-0.081,0-0.135,0-0.188
							c0-1.124-0.135-2.141-0.431-3.024c-0.297-0.937-0.754-1.739-1.345-2.408c-0.593-0.669-1.321-1.178-2.154-1.525
							c-0.861-0.348-1.831-0.508-2.907-0.508c-1.021,0-1.964,0.161-2.8,0.508c-0.86,0.347-1.587,0.856-2.207,1.472
							c-0.618,0.614-1.076,1.364-1.426,2.22c-0.35,0.857-0.512,1.794-0.512,2.811c0,1.043,0.189,1.979,0.538,2.809
							c0.351,0.856,0.835,1.579,1.455,2.193c0.619,0.616,1.346,1.07,2.233,1.393c0.862,0.349,1.831,0.508,2.881,0.508
							c0.726,0,1.425-0.08,2.099-0.267c0.673-0.189,1.292-0.481,1.857-0.831c0.566-0.375,1.051-0.829,1.481-1.337
							c0.43-0.534,0.779-1.15,1.021-1.848l-2.691-0.239c-0.376,0.588-0.861,1.045-1.479,1.419c-0.62,0.347-1.374,0.534-2.234,0.534
							c-1.104,0-2.072-0.322-2.854-0.963c-0.78-0.616-1.211-1.552-1.292-2.729H99.547L99.547,14.017z M95.322,9.494
							c0.619,0.589,1.022,1.338,1.21,2.275h-7.671c0.189-0.91,0.647-1.66,1.32-2.275c0.673-0.589,1.534-0.883,2.584-0.883
							C93.841,8.611,94.701,8.905,95.322,9.494L95.322,9.494z"/>
					</g>
				</g>
				<g>
					<path fill-rule="evenodd" clip-rule="evenodd" fill="#03649B" d="M109.29,9.628v-2.97c-0.19-0.081-0.377-0.133-0.592-0.161
						c-0.216-0.027-0.432-0.027-0.619-0.027c-0.89,0-1.644,0.135-2.208,0.402c-0.563,0.294-1.049,0.643-1.427,1.043V6.738h-3.283
						v13.191h3.283v-6.234c0-1.552,0.243-2.702,0.728-3.478c0.485-0.776,1.238-1.178,2.289-1.178c0.401,0,0.753,0.053,1.048,0.188
						c0.297,0.133,0.539,0.268,0.728,0.401H109.29L109.29,9.628z"/>
				</g>
				<g>
					<path fill-rule="evenodd" clip-rule="evenodd" fill="#03649B" d="M114.403,6.684V2.376h-3.282v4.308h-1.347v2.569h1.347v5.993
						c0,0.858,0.134,1.606,0.375,2.223c0.243,0.642,0.565,1.175,0.996,1.579c0.404,0.427,0.915,0.749,1.48,0.936
						c0.566,0.187,1.185,0.294,1.83,0.294c0.242,0,0.54-0.027,0.89-0.08c0.323-0.08,0.591-0.16,0.807-0.242v-2.595
						c-0.189,0.08-0.377,0.16-0.592,0.24c-0.215,0.082-0.43,0.107-0.674,0.107c-0.592,0-1.05-0.212-1.372-0.642
						c-0.296-0.428-0.458-1.15-0.458-2.195V9.253h3.096V6.684H114.403L114.403,6.684z"/>
				</g>
				<g>
					<polygon fill-rule="evenodd" clip-rule="evenodd" fill="#03649B" points="122.695,26.779 132.088,6.738 128.804,6.738 
						124.524,15.889 120.19,6.738 116.907,6.738 123.071,18.966 119.411,26.779 122.695,26.779 					"/>
				</g>
			</g>
		</g>
	</g>
	<path fill-rule="evenodd" clip-rule="evenodd" d="M136.661,17.174c-0.375-0.349-0.806-0.536-1.318-0.536
		c-0.511,0-0.968,0.187-1.316,0.536c-0.352,0.375-0.541,0.801-0.541,1.311c0,0.508,0.189,0.937,0.541,1.285
		c0.349,0.376,0.806,0.561,1.316,0.561c0.513,0,0.943-0.185,1.318-0.561c0.352-0.348,0.539-0.776,0.539-1.285
		C137.2,17.976,137.013,17.549,136.661,17.174L136.661,17.174z"/>
	<path fill-rule="evenodd" clip-rule="evenodd" d="M148.559,17.683c-0.672,0.292-1.561,0.641-2.907,0.641
		c-2.583,0-4.521-1.846-4.521-4.844c0-2.702,1.615-4.896,4.603-4.896c1.292,0,2.181,0.295,2.745,0.615l0.539-1.819
		c-0.646-0.32-1.884-0.668-3.284-0.668c-4.251,0-6.999,2.89-6.999,6.876c0,3.961,2.559,6.61,6.488,6.61
		c1.749,0,3.123-0.428,3.741-0.75L148.559,17.683L148.559,17.683z M155.771,6.684c-3.605,0-6.459,2.542-6.459,6.877
		c0,4.095,2.718,6.664,6.245,6.664c3.148,0,6.485-2.088,6.485-6.877C162.043,9.387,159.514,6.684,155.771,6.684L155.771,6.684z
		 M155.718,8.451c2.8,0,3.903,2.782,3.903,4.977c0,2.916-1.695,5.029-3.956,5.029c-2.314,0-3.957-2.141-3.957-4.977
		C151.708,11.02,152.921,8.451,155.718,8.451L155.718,8.451z M165.327,20.226c0.997,0,1.615-0.724,1.615-1.687
		c0-0.99-0.646-1.687-1.587-1.687c-0.942,0-1.616,0.697-1.616,1.687C163.739,19.502,164.386,20.226,165.327,20.226L165.327,20.226z
		 M168.396,19.929h10.576v-1.874h-7.614v-0.052c0.592-0.668,1.129-1.31,1.668-2.033l5.813-7.519l0.027-1.472h-9.934v1.9h7.052v0.053
		c-0.59,0.695-1.128,1.311-1.693,2.006l-5.895,7.625V19.929L168.396,19.929z M180.052,6.979l3.929,12.95h2.152l2.101-6.154
		c0.457-1.391,0.86-2.728,1.184-4.281h0.054c0.322,1.526,0.701,2.809,1.157,4.255l1.992,6.18h2.154l4.197-12.95h-2.342l-1.855,6.501
		c-0.432,1.526-0.78,2.89-0.997,4.203h-0.081c-0.295-1.313-0.673-2.677-1.157-4.228l-2.019-6.476h-1.992l-2.126,6.608
		c-0.432,1.392-0.861,2.783-1.158,4.096h-0.08c-0.242-1.339-0.592-2.677-0.97-4.122l-1.721-6.582H180.052L180.052,6.979z"/>
</g>
</svg>
